# xmcd
# 
# Track frame offsets:
#     150
#     16830
#     32955
#     43595
#     59820
#     69245
#     81780
#     94525
#     108212
#     123565
#     141842
#     153955
#     167707
# 
# Disc length: 2478
# 
# Revision: 35
# Processed by: cddbd v1.5.2PL0 Copyright (c) Steve Scherf et al.
# Submitted via: fre:ac v1.0.17
# 
DISCID=a609ac0d
DTITLE=Franz Ferdinand - You could have it so much better
DYEAR=2005
DGENRE=Indie
TTITLE0=The fallen
TTITLE1=Do you want to
TTITLE2=This boy
TTITLE3=Walk away
TTITLE4=Evil and a heathen
TTITLE5=You're the reason I'm leaving
TTITLE6=Eleanor put your boots on
TTITLE7=Well that was easy
TTITLE8=What you meant
TTITLE9=I'm your villain
TTITLE10=You could have it so much better
TTITLE11=Fade together
TTITLE12=Outsiders
EXTD=YEAR: 2005
EXTT0=
EXTT1=
EXTT2=
EXTT3=
EXTT4=
EXTT5=
EXTT6=
EXTT7=
EXTT8=
EXTT9=
EXTT10=
EXTT11=
EXTT12=
PLAYORDER=
